<mxfile host="app.diagrams.net" modified="2024-07-17T04:01:53.565Z" agent="Mozilla/5.0 (Macintosh; Intel Mac OS X 10_15_7) AppleWebKit/537.36 (KHTML, like Gecko) Chrome/126.0.0.0 Safari/537.36" etag="OWmqJngQWQ2AqVZMYjoa" version="24.6.5" type="device">
  <diagram name="Page-1" id="Wku0jwG6AN3SuDQX3lo5">
    <mxGraphModel dx="2534" dy="1644" grid="1" gridSize="10" guides="1" tooltips="1" connect="1" arrows="1" fold="1" page="1" pageScale="1" pageWidth="1100" pageHeight="850" math="0" shadow="0">
      <root>
        <mxCell id="0" />
        <mxCell id="1" parent="0" />
        <mxCell id="IWVNtD9aXww7eKOpTyQ4-28" value="" style="rounded=0;whiteSpace=wrap;html=1;dashed=1;dashPattern=8 8;" vertex="1" parent="1">
          <mxGeometry x="157.25" y="-130" width="165.5" height="370" as="geometry" />
        </mxCell>
        <mxCell id="IWVNtD9aXww7eKOpTyQ4-27" value="" style="rounded=0;whiteSpace=wrap;html=1;dashed=1;dashPattern=8 8;" vertex="1" parent="1">
          <mxGeometry x="-51" y="-130" width="170" height="370" as="geometry" />
        </mxCell>
        <mxCell id="IWVNtD9aXww7eKOpTyQ4-92" style="edgeStyle=none;rounded=0;orthogonalLoop=1;jettySize=auto;html=1;entryX=0;entryY=0.5;entryDx=0;entryDy=0;elbow=vertical;" edge="1" parent="1" source="IWVNtD9aXww7eKOpTyQ4-3" target="IWVNtD9aXww7eKOpTyQ4-23">
          <mxGeometry relative="1" as="geometry" />
        </mxCell>
        <mxCell id="IWVNtD9aXww7eKOpTyQ4-3" value="" style="sketch=0;points=[[0,0,0],[0.25,0,0],[0.5,0,0],[0.75,0,0],[1,0,0],[0,1,0],[0.25,1,0],[0.5,1,0],[0.75,1,0],[1,1,0],[0,0.25,0],[0,0.5,0],[0,0.75,0],[1,0.25,0],[1,0.5,0],[1,0.75,0]];outlineConnect=0;fontColor=#232F3E;fillColor=#8C4FFF;strokeColor=#ffffff;dashed=0;verticalLabelPosition=bottom;verticalAlign=top;align=center;html=1;fontSize=12;fontStyle=0;aspect=fixed;shape=mxgraph.aws4.resourceIcon;resIcon=mxgraph.aws4.glue;" vertex="1" parent="1">
          <mxGeometry x="201" y="70" width="78" height="78" as="geometry" />
        </mxCell>
        <mxCell id="IWVNtD9aXww7eKOpTyQ4-4" value="" style="sketch=0;points=[[0,0,0],[0.25,0,0],[0.5,0,0],[0.75,0,0],[1,0,0],[0,1,0],[0.25,1,0],[0.5,1,0],[0.75,1,0],[1,1,0],[0,0.25,0],[0,0.5,0],[0,0.75,0],[1,0.25,0],[1,0.5,0],[1,0.75,0]];points=[[0,0,0],[0.25,0,0],[0.5,0,0],[0.75,0,0],[1,0,0],[0,1,0],[0.25,1,0],[0.5,1,0],[0.75,1,0],[1,1,0],[0,0.25,0],[0,0.5,0],[0,0.75,0],[1,0.25,0],[1,0.5,0],[1,0.75,0]];outlineConnect=0;fontColor=#232F3E;fillColor=#E7157B;strokeColor=#ffffff;dashed=0;verticalLabelPosition=bottom;verticalAlign=top;align=center;html=1;fontSize=12;fontStyle=0;aspect=fixed;shape=mxgraph.aws4.resourceIcon;resIcon=mxgraph.aws4.cloudwatch_2;" vertex="1" parent="1">
          <mxGeometry x="-210" y="70" width="78" height="78" as="geometry" />
        </mxCell>
        <mxCell id="IWVNtD9aXww7eKOpTyQ4-5" value="" style="sketch=0;points=[[0,0,0],[0.25,0,0],[0.5,0,0],[0.75,0,0],[1,0,0],[0,1,0],[0.25,1,0],[0.5,1,0],[0.75,1,0],[1,1,0],[0,0.25,0],[0,0.5,0],[0,0.75,0],[1,0.25,0],[1,0.5,0],[1,0.75,0]];outlineConnect=0;fontColor=#232F3E;fillColor=#ED7100;strokeColor=#ffffff;dashed=0;verticalLabelPosition=bottom;verticalAlign=top;align=center;html=1;fontSize=12;fontStyle=0;aspect=fixed;shape=mxgraph.aws4.resourceIcon;resIcon=mxgraph.aws4.lambda;" vertex="1" parent="1">
          <mxGeometry x="-10" y="71" width="80" height="80" as="geometry" />
        </mxCell>
        <mxCell id="IWVNtD9aXww7eKOpTyQ4-6" value="" style="shape=image;verticalLabelPosition=bottom;verticalAlign=top;imageAspect=0;image=https://imgs.search.brave.com/Y1n4MpRFktzIe412ziEQ-3lsL8F1jQv-FGbFQrS8Ob8/rs:fit:500:0:0:0/g:ce/aHR0cHM6Ly9hc3Nl/dHMuc3RpY2twbmcu/Y29tL2ltYWdlcy81/ODQ4MTUyZmNlZjEw/MTRjMGI1ZTQ5Njcu/cG5n;" vertex="1" parent="1">
          <mxGeometry x="-10" y="-88" width="88" height="88" as="geometry" />
        </mxCell>
        <mxCell id="IWVNtD9aXww7eKOpTyQ4-7" value="" style="shape=image;verticalLabelPosition=bottom;verticalAlign=top;imageAspect=0;image=https://imgs.search.brave.com/NZHsSgGN5Y2TZZDHSxWq-iMBa_nQnzZRxpUzeS2G_TI/rs:fit:500:0:0:0/g:ce/aHR0cHM6Ly93d3cu/cXVib2xlLmNvbS93/cC1jb250ZW50L3Vw/bG9hZHMvMjAxNy8w/NS9hcGFjaGUtc3Bh/cmsucG5n;" vertex="1" parent="1">
          <mxGeometry x="182" y="-88" width="116" height="68" as="geometry" />
        </mxCell>
        <mxCell id="IWVNtD9aXww7eKOpTyQ4-11" value="" style="shape=image;verticalLabelPosition=bottom;verticalAlign=top;imageAspect=0;image=https://www.logicata.com/wp-content/uploads/2020/01/Amazon-Simple-Storage-Service-S3_Bucket-with-Objects_light-bg@4x.png;" vertex="1" parent="1">
          <mxGeometry x="-9" y="270" width="86" height="90.75" as="geometry" />
        </mxCell>
        <mxCell id="IWVNtD9aXww7eKOpTyQ4-13" value="" style="shape=image;verticalLabelPosition=bottom;verticalAlign=top;imageAspect=0;image=https://welcon.kocca.kr/cmm/getImage.do?atchFileId=FILE_d38356b9-28bd-4e3b-a63e-1dfbd060b2e7&amp;amp;fileSn=1&amp;amp;thumb=;" vertex="1" parent="1">
          <mxGeometry x="630" y="-99" width="190" height="90" as="geometry" />
        </mxCell>
        <mxCell id="IWVNtD9aXww7eKOpTyQ4-91" style="edgeStyle=none;rounded=0;orthogonalLoop=1;jettySize=auto;html=1;elbow=vertical;" edge="1" parent="1" source="IWVNtD9aXww7eKOpTyQ4-14">
          <mxGeometry relative="1" as="geometry">
            <mxPoint x="727.5" y="220" as="targetPoint" />
          </mxGeometry>
        </mxCell>
        <mxCell id="IWVNtD9aXww7eKOpTyQ4-14" value="" style="shape=image;verticalLabelPosition=bottom;verticalAlign=top;imageAspect=0;image=https://miro.medium.com/v2/resize:fit:1088/0*AmYXrtpALhMlQcZI.png;" vertex="1" parent="1">
          <mxGeometry x="620" y="53.78" width="215" height="110" as="geometry" />
        </mxCell>
        <mxCell id="IWVNtD9aXww7eKOpTyQ4-15" value="" style="shape=image;verticalLabelPosition=bottom;verticalAlign=top;imageAspect=0;image=https://images.datacamp.com/image/upload/v1714478776/re388xshtgihucfiiavf.png;" vertex="1" parent="1">
          <mxGeometry x="662.5" y="225.38" width="130" height="112" as="geometry" />
        </mxCell>
        <mxCell id="IWVNtD9aXww7eKOpTyQ4-16" value="" style="outlineConnect=0;dashed=0;verticalLabelPosition=bottom;verticalAlign=top;align=center;html=1;shape=mxgraph.aws3.event_event_based;fillColor=#9C4263;gradientColor=none;" vertex="1" parent="1">
          <mxGeometry x="201" y="270" width="79" height="80" as="geometry" />
        </mxCell>
        <mxCell id="IWVNtD9aXww7eKOpTyQ4-17" value="" style="shape=image;verticalLabelPosition=bottom;verticalAlign=top;imageAspect=0;image=https://developer.spotify.com/images/guidelines/design/logo.png;" vertex="1" parent="1">
          <mxGeometry x="-570" y="63.18" width="210" height="91.2" as="geometry" />
        </mxCell>
        <mxCell id="IWVNtD9aXww7eKOpTyQ4-19" value="" style="endArrow=classic;html=1;rounded=0;" edge="1" parent="1" target="IWVNtD9aXww7eKOpTyQ4-4">
          <mxGeometry width="50" height="50" relative="1" as="geometry">
            <mxPoint x="-360" y="110" as="sourcePoint" />
            <mxPoint x="-310" y="70" as="targetPoint" />
          </mxGeometry>
        </mxCell>
        <mxCell id="IWVNtD9aXww7eKOpTyQ4-20" value="" style="endArrow=classic;html=1;rounded=0;" edge="1" parent="1">
          <mxGeometry width="50" height="50" relative="1" as="geometry">
            <mxPoint x="-132" y="107.63" as="sourcePoint" />
            <mxPoint x="-10" y="107" as="targetPoint" />
          </mxGeometry>
        </mxCell>
        <mxCell id="IWVNtD9aXww7eKOpTyQ4-32" value="AWS Cloud" style="points=[[0,0],[0.25,0],[0.5,0],[0.75,0],[1,0],[1,0.25],[1,0.5],[1,0.75],[1,1],[0.75,1],[0.5,1],[0.25,1],[0,1],[0,0.75],[0,0.5],[0,0.25]];outlineConnect=0;gradientColor=none;html=1;whiteSpace=wrap;fontSize=12;fontStyle=0;container=1;pointerEvents=0;collapsible=0;recursiveResize=0;shape=mxgraph.aws4.group;grIcon=mxgraph.aws4.group_aws_cloud_alt;strokeColor=#232F3E;fillColor=none;verticalAlign=top;align=left;spacingLeft=30;fontColor=#232F3E;dashed=0;" vertex="1" parent="1">
          <mxGeometry x="-290" y="-210" width="870" height="610" as="geometry" />
        </mxCell>
        <mxCell id="IWVNtD9aXww7eKOpTyQ4-33" value="&lt;h1&gt;&lt;span style=&quot;font-weight: normal;&quot;&gt;Extract&lt;/span&gt;&lt;/h1&gt;" style="text;html=1;align=center;verticalAlign=middle;whiteSpace=wrap;rounded=0;" vertex="1" parent="IWVNtD9aXww7eKOpTyQ4-32">
          <mxGeometry x="273.5" y="12" width="91" height="28" as="geometry" />
        </mxCell>
        <mxCell id="IWVNtD9aXww7eKOpTyQ4-34" value="&lt;h1&gt;&lt;span style=&quot;font-weight: normal;&quot;&gt;Transform&lt;/span&gt;&lt;/h1&gt;" style="text;html=1;align=center;verticalAlign=middle;whiteSpace=wrap;rounded=0;" vertex="1" parent="IWVNtD9aXww7eKOpTyQ4-32">
          <mxGeometry x="479" y="12" width="91" height="28" as="geometry" />
        </mxCell>
        <mxCell id="IWVNtD9aXww7eKOpTyQ4-83" style="edgeStyle=none;rounded=0;orthogonalLoop=1;jettySize=auto;html=1;exitX=1;exitY=0.75;exitDx=0;exitDy=0;entryX=0;entryY=0.25;entryDx=0;entryDy=0;elbow=vertical;" edge="1" parent="IWVNtD9aXww7eKOpTyQ4-32" source="IWVNtD9aXww7eKOpTyQ4-23" target="IWVNtD9aXww7eKOpTyQ4-71">
          <mxGeometry relative="1" as="geometry" />
        </mxCell>
        <mxCell id="IWVNtD9aXww7eKOpTyQ4-23" value="" style="shape=image;verticalLabelPosition=bottom;verticalAlign=top;imageAspect=0;image=https://www.logicata.com/wp-content/uploads/2020/01/Amazon-Simple-Storage-Service-S3_Bucket-with-Objects_light-bg@4x.png;" vertex="1" parent="IWVNtD9aXww7eKOpTyQ4-32">
          <mxGeometry x="660" y="270" width="86" height="90" as="geometry" />
        </mxCell>
        <mxCell id="IWVNtD9aXww7eKOpTyQ4-72" value="" style="group" vertex="1" connectable="0" parent="IWVNtD9aXww7eKOpTyQ4-32">
          <mxGeometry x="790" y="290" width="60" height="70" as="geometry" />
        </mxCell>
        <mxCell id="IWVNtD9aXww7eKOpTyQ4-69" value="" style="sketch=0;outlineConnect=0;fontColor=#232F3E;gradientColor=none;fillColor=#DD344C;strokeColor=none;dashed=0;verticalLabelPosition=bottom;verticalAlign=top;align=center;html=1;fontSize=12;fontStyle=0;aspect=fixed;pointerEvents=1;shape=mxgraph.aws4.role;" vertex="1" parent="IWVNtD9aXww7eKOpTyQ4-72">
          <mxGeometry x="3.409999999999968" width="53.18" height="30" as="geometry" />
        </mxCell>
        <mxCell id="IWVNtD9aXww7eKOpTyQ4-71" value="Assume Role" style="text;html=1;align=center;verticalAlign=middle;whiteSpace=wrap;rounded=0;" vertex="1" parent="IWVNtD9aXww7eKOpTyQ4-72">
          <mxGeometry y="40" width="60" height="30" as="geometry" />
        </mxCell>
        <mxCell id="IWVNtD9aXww7eKOpTyQ4-86" value="" style="outlineConnect=0;dashed=0;verticalLabelPosition=bottom;verticalAlign=top;align=center;html=1;shape=mxgraph.aws3.event_event_based;fillColor=#759C3E;gradientColor=none;" vertex="1" parent="IWVNtD9aXww7eKOpTyQ4-32">
          <mxGeometry x="673" y="110" width="60" height="82.5" as="geometry" />
        </mxCell>
        <mxCell id="IWVNtD9aXww7eKOpTyQ4-88" style="edgeStyle=none;rounded=0;orthogonalLoop=1;jettySize=auto;html=1;elbow=vertical;" edge="1" parent="IWVNtD9aXww7eKOpTyQ4-32" source="IWVNtD9aXww7eKOpTyQ4-23">
          <mxGeometry relative="1" as="geometry">
            <mxPoint x="703" y="220" as="targetPoint" />
          </mxGeometry>
        </mxCell>
        <mxCell id="IWVNtD9aXww7eKOpTyQ4-94" value="Amazon Cloudwatch&lt;div&gt;(Daily Trigger)&lt;/div&gt;" style="text;html=1;align=center;verticalAlign=middle;whiteSpace=wrap;rounded=0;strokeWidth=6;fontStyle=1" vertex="1" parent="IWVNtD9aXww7eKOpTyQ4-32">
          <mxGeometry x="50" y="370" width="140" height="40" as="geometry" />
        </mxCell>
        <mxCell id="IWVNtD9aXww7eKOpTyQ4-97" value="AWS S3&lt;div&gt;(Transformed Data)&lt;/div&gt;" style="text;html=1;align=center;verticalAlign=middle;whiteSpace=wrap;rounded=0;strokeWidth=6;fontStyle=1" vertex="1" parent="IWVNtD9aXww7eKOpTyQ4-32">
          <mxGeometry x="640" y="360" width="140" height="40" as="geometry" />
        </mxCell>
        <mxCell id="IWVNtD9aXww7eKOpTyQ4-98" value="AWS S3&lt;div&gt;(Raw Data)&lt;/div&gt;" style="text;html=1;align=center;verticalAlign=middle;whiteSpace=wrap;rounded=0;strokeWidth=6;fontStyle=1" vertex="1" parent="IWVNtD9aXww7eKOpTyQ4-32">
          <mxGeometry x="249" y="570" width="140" height="40" as="geometry" />
        </mxCell>
        <mxCell id="IWVNtD9aXww7eKOpTyQ4-99" value="&lt;div&gt;Trigger&lt;/div&gt;&lt;div&gt;(Object Put)&lt;/div&gt;" style="text;html=1;align=center;verticalAlign=middle;whiteSpace=wrap;rounded=0;strokeWidth=6;fontStyle=1" vertex="1" parent="IWVNtD9aXww7eKOpTyQ4-32">
          <mxGeometry x="454.5" y="570" width="140" height="40" as="geometry" />
        </mxCell>
        <mxCell id="IWVNtD9aXww7eKOpTyQ4-102" value="&lt;div&gt;Event Notification&lt;/div&gt;" style="text;html=1;align=center;verticalAlign=middle;whiteSpace=wrap;rounded=0;strokeWidth=6;fontStyle=1" vertex="1" parent="IWVNtD9aXww7eKOpTyQ4-32">
          <mxGeometry x="633" y="190" width="140" height="40" as="geometry" />
        </mxCell>
        <mxCell id="IWVNtD9aXww7eKOpTyQ4-35" value="&lt;h1&gt;&lt;span style=&quot;font-weight: normal;&quot;&gt;Load&lt;/span&gt;&lt;/h1&gt;" style="text;html=1;align=center;verticalAlign=middle;whiteSpace=wrap;rounded=0;" vertex="1" parent="1">
          <mxGeometry x="679.5" y="-190" width="91" height="28" as="geometry" />
        </mxCell>
        <mxCell id="IWVNtD9aXww7eKOpTyQ4-45" style="edgeStyle=entityRelationEdgeStyle;rounded=0;orthogonalLoop=1;jettySize=auto;html=1;exitX=1;exitY=0.5;exitDx=0;exitDy=0;entryX=0;entryY=0;entryDx=0;entryDy=0;entryPerimeter=0;elbow=vertical;" edge="1" parent="1" source="IWVNtD9aXww7eKOpTyQ4-36" target="IWVNtD9aXww7eKOpTyQ4-5">
          <mxGeometry relative="1" as="geometry" />
        </mxCell>
        <mxCell id="IWVNtD9aXww7eKOpTyQ4-49" value="" style="group" vertex="1" connectable="0" parent="1">
          <mxGeometry x="-540" y="-240" width="230" height="180" as="geometry" />
        </mxCell>
        <mxCell id="IWVNtD9aXww7eKOpTyQ4-51" value="" style="group" vertex="1" connectable="0" parent="IWVNtD9aXww7eKOpTyQ4-49">
          <mxGeometry width="230" height="180" as="geometry" />
        </mxCell>
        <mxCell id="IWVNtD9aXww7eKOpTyQ4-36" value="" style="rounded=0;whiteSpace=wrap;html=1;" vertex="1" parent="IWVNtD9aXww7eKOpTyQ4-51">
          <mxGeometry width="230" height="180" as="geometry" />
        </mxCell>
        <mxCell id="IWVNtD9aXww7eKOpTyQ4-24" value="" style="outlineConnect=0;dashed=0;verticalLabelPosition=bottom;verticalAlign=top;align=center;html=1;shape=mxgraph.aws3.role;fillColor=#759C3E;gradientColor=none;" vertex="1" parent="IWVNtD9aXww7eKOpTyQ4-51">
          <mxGeometry x="130" y="52" width="60" height="50" as="geometry" />
        </mxCell>
        <mxCell id="IWVNtD9aXww7eKOpTyQ4-25" value="" style="outlineConnect=0;dashed=0;verticalLabelPosition=bottom;verticalAlign=top;align=center;html=1;shape=mxgraph.aws3.config_rule;fillColor=#FF179A;gradientColor=none;" vertex="1" parent="IWVNtD9aXww7eKOpTyQ4-51">
          <mxGeometry x="40" y="30" width="55.5" height="72" as="geometry" />
        </mxCell>
        <mxCell id="IWVNtD9aXww7eKOpTyQ4-38" value="&lt;div&gt;AmazonS3FullAccess&lt;/div&gt;&lt;div&gt;AWSGlueServiceRole&lt;/div&gt;" style="text;html=1;align=center;verticalAlign=middle;whiteSpace=wrap;rounded=0;" vertex="1" parent="IWVNtD9aXww7eKOpTyQ4-51">
          <mxGeometry x="30" y="110" width="130" height="40" as="geometry" />
        </mxCell>
        <mxCell id="IWVNtD9aXww7eKOpTyQ4-46" value="Role" style="text;html=1;align=center;verticalAlign=middle;whiteSpace=wrap;rounded=0;" vertex="1" parent="IWVNtD9aXww7eKOpTyQ4-51">
          <mxGeometry x="130" y="22" width="60" height="30" as="geometry" />
        </mxCell>
        <mxCell id="IWVNtD9aXww7eKOpTyQ4-47" value="Policies" style="text;html=1;align=center;verticalAlign=middle;whiteSpace=wrap;rounded=0;" vertex="1" parent="IWVNtD9aXww7eKOpTyQ4-51">
          <mxGeometry x="35.5" width="60" height="30" as="geometry" />
        </mxCell>
        <mxCell id="IWVNtD9aXww7eKOpTyQ4-52" value="" style="group" vertex="1" connectable="0" parent="1">
          <mxGeometry x="-570" y="225.38" width="250" height="200" as="geometry" />
        </mxCell>
        <mxCell id="IWVNtD9aXww7eKOpTyQ4-53" value="" style="group" vertex="1" connectable="0" parent="IWVNtD9aXww7eKOpTyQ4-52">
          <mxGeometry width="250" height="200" as="geometry" />
        </mxCell>
        <mxCell id="IWVNtD9aXww7eKOpTyQ4-54" value="" style="rounded=0;whiteSpace=wrap;html=1;" vertex="1" parent="IWVNtD9aXww7eKOpTyQ4-53">
          <mxGeometry width="250" height="200" as="geometry" />
        </mxCell>
        <mxCell id="IWVNtD9aXww7eKOpTyQ4-55" value="" style="outlineConnect=0;dashed=0;verticalLabelPosition=bottom;verticalAlign=top;align=center;html=1;shape=mxgraph.aws3.role;fillColor=#759C3E;gradientColor=none;" vertex="1" parent="IWVNtD9aXww7eKOpTyQ4-53">
          <mxGeometry x="130" y="52" width="60" height="50" as="geometry" />
        </mxCell>
        <mxCell id="IWVNtD9aXww7eKOpTyQ4-56" value="" style="outlineConnect=0;dashed=0;verticalLabelPosition=bottom;verticalAlign=top;align=center;html=1;shape=mxgraph.aws3.config_rule;fillColor=#FF179A;gradientColor=none;" vertex="1" parent="IWVNtD9aXww7eKOpTyQ4-53">
          <mxGeometry x="40" y="30" width="55.5" height="72" as="geometry" />
        </mxCell>
        <mxCell id="IWVNtD9aXww7eKOpTyQ4-57" value="&lt;div&gt;AmazonS3FullAccess&lt;/div&gt;&lt;div&gt;AWSGlueServiceNotebookRole&lt;/div&gt;&lt;div&gt;AWSGlueServiceRole&lt;/div&gt;&lt;div&gt;AWSLambda_FullAccess&lt;/div&gt;&lt;div&gt;IAMFullAccess&lt;/div&gt;&lt;div&gt;&lt;br&gt;&lt;/div&gt;" style="text;html=1;align=left;verticalAlign=middle;whiteSpace=wrap;rounded=0;" vertex="1" parent="IWVNtD9aXww7eKOpTyQ4-53">
          <mxGeometry x="35.5" y="114.62" width="190" height="80" as="geometry" />
        </mxCell>
        <mxCell id="IWVNtD9aXww7eKOpTyQ4-58" value="Role" style="text;html=1;align=center;verticalAlign=middle;whiteSpace=wrap;rounded=0;" vertex="1" parent="IWVNtD9aXww7eKOpTyQ4-53">
          <mxGeometry x="130" y="22" width="60" height="30" as="geometry" />
        </mxCell>
        <mxCell id="IWVNtD9aXww7eKOpTyQ4-59" value="Policies" style="text;html=1;align=center;verticalAlign=middle;whiteSpace=wrap;rounded=0;" vertex="1" parent="IWVNtD9aXww7eKOpTyQ4-53">
          <mxGeometry x="35.5" width="60" height="30" as="geometry" />
        </mxCell>
        <mxCell id="IWVNtD9aXww7eKOpTyQ4-60" style="edgeStyle=entityRelationEdgeStyle;rounded=0;orthogonalLoop=1;jettySize=auto;html=1;elbow=vertical;" edge="1" parent="1" source="IWVNtD9aXww7eKOpTyQ4-54" target="IWVNtD9aXww7eKOpTyQ4-3">
          <mxGeometry relative="1" as="geometry">
            <Array as="points">
              <mxPoint x="-50" y="260" />
            </Array>
          </mxGeometry>
        </mxCell>
        <mxCell id="IWVNtD9aXww7eKOpTyQ4-84" style="edgeStyle=none;rounded=0;orthogonalLoop=1;jettySize=auto;html=1;exitX=1;exitY=0.25;exitDx=0;exitDy=0;entryX=-0.023;entryY=0.666;entryDx=0;entryDy=0;entryPerimeter=0;elbow=vertical;" edge="1" parent="1" source="IWVNtD9aXww7eKOpTyQ4-71" target="IWVNtD9aXww7eKOpTyQ4-14">
          <mxGeometry relative="1" as="geometry" />
        </mxCell>
        <mxCell id="IWVNtD9aXww7eKOpTyQ4-87" style="edgeStyle=none;rounded=0;orthogonalLoop=1;jettySize=auto;html=1;entryX=-0.016;entryY=0.433;entryDx=0;entryDy=0;entryPerimeter=0;elbow=vertical;" edge="1" parent="1" source="IWVNtD9aXww7eKOpTyQ4-86" target="IWVNtD9aXww7eKOpTyQ4-13">
          <mxGeometry relative="1" as="geometry" />
        </mxCell>
        <mxCell id="IWVNtD9aXww7eKOpTyQ4-89" style="edgeStyle=none;rounded=0;orthogonalLoop=1;jettySize=auto;html=1;elbow=vertical;" edge="1" parent="1" source="IWVNtD9aXww7eKOpTyQ4-13">
          <mxGeometry relative="1" as="geometry">
            <mxPoint x="725" y="90" as="targetPoint" />
          </mxGeometry>
        </mxCell>
        <mxCell id="IWVNtD9aXww7eKOpTyQ4-93" style="edgeStyle=none;rounded=0;orthogonalLoop=1;jettySize=auto;html=1;entryX=0;entryY=0.25;entryDx=0;entryDy=0;entryPerimeter=0;elbow=vertical;" edge="1" parent="1" target="IWVNtD9aXww7eKOpTyQ4-3">
          <mxGeometry relative="1" as="geometry">
            <mxPoint x="70" y="90" as="sourcePoint" />
          </mxGeometry>
        </mxCell>
        <mxCell id="IWVNtD9aXww7eKOpTyQ4-101" style="edgeStyle=none;rounded=0;orthogonalLoop=1;jettySize=auto;html=1;elbow=vertical;" edge="1" parent="1" source="IWVNtD9aXww7eKOpTyQ4-95" target="IWVNtD9aXww7eKOpTyQ4-11">
          <mxGeometry relative="1" as="geometry" />
        </mxCell>
        <mxCell id="IWVNtD9aXww7eKOpTyQ4-95" value="AWS Lambda&lt;div&gt;(Data Extraction)&lt;/div&gt;" style="text;html=1;align=center;verticalAlign=middle;whiteSpace=wrap;rounded=0;strokeWidth=6;fontStyle=1" vertex="1" parent="1">
          <mxGeometry x="-36" y="154.38" width="140" height="40" as="geometry" />
        </mxCell>
        <mxCell id="IWVNtD9aXww7eKOpTyQ4-96" value="AWS Glue&lt;div&gt;(Data Transformation)&lt;/div&gt;" style="text;html=1;align=center;verticalAlign=middle;whiteSpace=wrap;rounded=0;strokeWidth=6;fontStyle=1" vertex="1" parent="1">
          <mxGeometry x="170.5" y="154.38" width="140" height="40" as="geometry" />
        </mxCell>
        <mxCell id="IWVNtD9aXww7eKOpTyQ4-100" style="edgeStyle=none;rounded=0;orthogonalLoop=1;jettySize=auto;html=1;exitX=0.46;exitY=0.54;exitDx=0;exitDy=0;exitPerimeter=0;entryX=0.461;entryY=0.94;entryDx=0;entryDy=0;entryPerimeter=0;elbow=vertical;" edge="1" parent="1" source="IWVNtD9aXww7eKOpTyQ4-16" target="IWVNtD9aXww7eKOpTyQ4-96">
          <mxGeometry relative="1" as="geometry" />
        </mxCell>
        <mxCell id="IWVNtD9aXww7eKOpTyQ4-103" value="Created by Naga Venkatesh Gavini" style="text;html=1;align=center;verticalAlign=middle;whiteSpace=wrap;rounded=0;" vertex="1" parent="1">
          <mxGeometry x="510" y="440" width="220" height="10" as="geometry" />
        </mxCell>
      </root>
    </mxGraphModel>
  </diagram>
</mxfile>
